<svg width="98" height="98" viewBox="0 0 98 98" fill="none" xmlns="http://www.w3.org/2000/svg">
<path d="M38.5467 4C38.5467 1.79086 40.3375 0 42.5467 0H55.6711C57.8803 0 59.6711 1.79086 59.6711 4V34.3289C59.6711 36.538 61.462 38.3289 63.6711 38.3289H94C96.2091 38.3289 98 40.1198 98 42.3289V55.2356C98 57.4447 96.2091 59.2355 94 59.2355H63.6711C61.462 59.2355 59.6711 61.0264 59.6711 63.2356V94C59.6711 96.2091 57.8803 98 55.6711 98H42.5467C40.3375 98 38.5467 96.2091 38.5467 94V63.2356C38.5467 61.0264 36.7558 59.2355 34.5467 59.2355H4C1.79087 59.2355 0 57.4447 0 55.2356V42.3289C0 40.1197 1.79086 38.3289 4 38.3289H34.5467C36.7558 38.3289 38.5467 36.538 38.5467 34.3289V4Z" fill="white"/>
</svg>
