<svg width="24" height="24" viewBox="0 0 24 24" fill="none" xmlns="http://www.w3.org/2000/svg">
<path d="M13.6184 13.3981L20.6803 6.33617C21.406 5.58951 21.3412 4.34116 20.5348 3.53481C19.7285 2.72847 18.4801 2.66363 17.7335 3.38932L10.6716 10.4512M12.7876 18.3534L5.7177 11.2834M14.0672 17.075L10.0291 21.1131C9.58325 21.5589 8.82599 21.5245 8.3377 21.0362L3.03489 15.7334C2.5466 15.2451 2.51218 14.4878 2.95802 14.042L6.99611 10.0039C7.42412 9.57536 8.02113 9.35077 8.65563 9.37961C9.29013 9.40845 9.91007 9.68834 10.3789 10.1576L13.9115 13.6902C14.3816 14.1589 14.6622 14.7791 14.6914 15.4141C14.7206 16.0491 14.496 16.6466 14.0672 17.075Z" stroke="#323232" stroke-width="1.5" stroke-linecap="round" stroke-linejoin="round"/>
</svg>
