<svg width="24" height="24" viewBox="0 0 24 24" fill="none" xmlns="http://www.w3.org/2000/svg">
<path d="M17.625 11.999C17.625 11.847 17.502 11.724 17.35 11.726C17.198 11.726 17.075 11.849 17.075 12.001C17.075 12.153 17.198 12.276 17.35 12.276C17.502 12.274 17.625 12.152 17.625 11.999" stroke="#323232" stroke-width="1.5" stroke-linecap="round" stroke-linejoin="round"/>
<path d="M12.001 6.92401C12.153 6.92401 12.276 6.80101 12.274 6.65001C12.274 6.49801 12.151 6.37501 11.999 6.37501C11.847 6.37501 11.724 6.49801 11.724 6.65001C11.724 6.80201 11.848 6.92401 12.001 6.92401" stroke="#323232" stroke-width="1.5" stroke-linecap="round" stroke-linejoin="round"/>
<path d="M15.978 15.977C16.085 15.87 16.085 15.696 15.977 15.59C15.87 15.483 15.696 15.483 15.589 15.59C15.482 15.697 15.482 15.871 15.589 15.978C15.697 16.085 15.87 16.085 15.978 15.977" stroke="#323232" stroke-width="1.5" stroke-linecap="round" stroke-linejoin="round"/>
<path d="M8.41099 8.41001C8.51799 8.30301 8.51799 8.12901 8.40999 8.02301C8.30299 7.91601 8.12899 7.91601 8.02199 8.02301C7.91499 8.13001 7.91499 8.30401 8.02199 8.41101C8.12899 8.51801 8.30299 8.51801 8.41099 8.41001" stroke="#323232" stroke-width="1.5" stroke-linecap="round" stroke-linejoin="round"/>
<path d="M15.59 8.41099C15.697 8.51799 15.871 8.51799 15.977 8.40999C16.084 8.30299 16.084 8.12899 15.977 8.02199C15.87 7.91499 15.696 7.91499 15.589 8.02199C15.482 8.12899 15.482 8.30299 15.59 8.41099" stroke="#323232" stroke-width="1.5" stroke-linecap="round" stroke-linejoin="round"/>
<path fill-rule="evenodd" clip-rule="evenodd" d="M3.00003 12C3.00003 6.945 7.16803 2.863 12.255 3.004C16.951 3.134 20.866 7.049 20.996 11.745C21.137 16.832 17.055 21 12 21L11 21C9.89503 21 9.00003 20.105 9.00003 19L9.00003 16.937C9.00003 15.608 7.72803 14.649 6.45103 15.014L5.55003 15.271C4.27203 15.637 3.00003 14.677 3.00003 13.349L3.00003 12Z" stroke="#323232" stroke-width="1.5" stroke-linecap="round" stroke-linejoin="round"/>
</svg>
