<svg width="1824" height="144" viewBox="0 0 1824 144" fill="none" xmlns="http://www.w3.org/2000/svg">
<path d="M59.351 36.908H40.377V107.792H59.351C69.1363 107.792 77.5493 104.331 84.59 97.41C91.392 90.608 94.793 82.2547 94.793 72.35C94.793 62.4453 91.392 54.0323 84.59 47.111C77.5493 40.309 69.1363 36.908 59.351 36.908ZM59.351 9.69999C76.6543 9.69999 91.4517 15.786 103.743 27.958C115.915 40.2493 122.001 55.0467 122.001 72.35C122.001 89.6533 115.915 104.391 103.743 116.563C91.4517 128.854 76.6543 135 59.351 135H13.348V9.69999H59.351ZM173.575 87.923H200.604L186.821 49.975L173.575 87.923ZM164.267 114.952L157.286 135H128.646L172.143 9.69999H200.604L246.607 135H217.788L210.449 114.952H164.267ZM259.823 135V9.69999H286.852V135H259.823ZM310.866 135V9.69999H337.895V107.792H393.385V135H310.866ZM397.841 9.69999H429.524L451.899 48.185L474.095 9.69999H505.778L465.324 79.51V135H438.295V79.51L397.841 9.69999ZM551.707 9.69999H653.916V36.908H616.326V135H589.297V36.908H551.707V9.69999ZM702.884 87.923H729.913L716.13 49.975L702.884 87.923ZM693.576 114.952L686.595 135H657.955L701.452 9.69999H729.913L775.916 135H747.097L739.758 114.952H693.576ZM825.647 7.552C835.075 7.552 843.428 10.1177 850.707 15.249C858.106 20.261 862.939 26.8243 865.206 34.939L838.893 42.099C838.297 39.8317 836.805 38.0417 834.418 36.729C832.032 35.4163 829.108 34.76 825.647 34.76C821.59 34.76 818.249 35.655 815.623 37.445C812.998 39.3543 811.685 41.92 811.685 45.142C811.685 47.5287 812.7 49.5573 814.728 51.228C817.354 53.2567 821.709 54.808 827.795 55.882C840.087 58.03 850.17 62.505 858.046 69.307C865.803 76.109 869.681 85.1187 869.681 96.336C869.681 107.911 865.445 117.577 856.972 125.334C848.38 133.21 837.939 137.148 825.647 137.148C815.743 137.148 806.852 134.403 798.976 128.914C790.981 123.305 785.73 116.145 783.224 107.434L809.358 100.274C810.194 103.257 812.163 105.584 815.265 107.255C818.249 109.045 821.709 109.94 825.647 109.94C830.421 109.94 834.478 108.747 837.819 106.36C841.041 103.735 842.652 100.393 842.652 96.336C842.652 92.9947 841.161 90.1307 838.177 87.744C834.955 85.1187 830.122 83.269 823.678 82.195C812.222 80.1663 802.855 76.109 795.575 70.023C788.177 63.937 784.477 55.6433 784.477 45.142C784.477 34.5213 788.475 25.5713 796.47 18.292C804.466 11.132 814.191 7.552 825.647 7.552ZM887.721 135V9.69999H914.75V55.166L953.772 9.69999H989.214L942.674 64.295L992.794 135H959.679L924.595 85.954L914.75 97.231V135H887.721ZM1039.06 9.69999H1141.27V36.908H1103.68V135H1076.65V36.908H1039.06V9.69999ZM1182.9 36.908V67.517H1205.81C1209.99 67.517 1213.63 65.9657 1216.73 62.863C1219.71 59.8797 1221.21 56.2997 1221.21 52.123C1221.21 48.0657 1219.71 44.4857 1216.73 41.383C1213.63 38.3997 1209.99 36.908 1205.81 36.908H1182.9ZM1155.87 9.69999H1205.81C1217.51 9.69999 1227.53 13.8767 1235.88 22.23C1244.24 30.464 1248.41 40.4283 1248.41 52.123C1248.41 59.283 1246.74 65.906 1243.4 71.992C1240.06 78.078 1235.59 83.0303 1229.98 86.849L1248.41 135H1219.42L1203.84 94.725H1182.9V135H1155.87V9.69999ZM1298.27 87.923H1325.3L1311.51 49.975L1298.27 87.923ZM1288.96 114.952L1281.98 135H1253.34L1296.84 9.69999H1325.3L1371.3 135H1342.48L1335.14 114.952H1288.96ZM1441.8 7.552C1446.33 7.552 1450.69 8.02933 1454.86 8.98399C1459.04 9.81933 1463.04 11.0723 1466.86 12.743C1470.79 14.4137 1474.43 16.4423 1477.77 18.829C1481.24 21.2157 1484.46 23.9007 1487.44 26.884L1468.29 46.037C1461.01 38.519 1452.18 34.76 1441.8 34.76C1431.41 34.76 1422.7 38.4593 1415.66 45.858C1408.5 53.1373 1404.92 61.968 1404.92 72.35C1404.92 82.732 1408.5 91.6223 1415.66 99.021C1422.7 106.3 1431.41 109.94 1441.8 109.94C1452.18 109.94 1460.95 106.241 1468.11 98.842L1487.26 117.995C1484.4 120.978 1481.24 123.663 1477.77 126.05C1474.31 128.317 1470.61 130.346 1466.68 132.136C1458.92 135.477 1450.63 137.148 1441.8 137.148C1423.54 137.148 1408.14 130.704 1395.61 117.816C1389.77 111.491 1385.29 104.57 1382.19 97.052C1379.21 89.4147 1377.71 81.1807 1377.71 72.35C1377.71 63.5193 1379.21 55.345 1382.19 47.827C1385.29 40.309 1389.83 33.3877 1395.79 27.063C1408.2 14.0557 1423.54 7.552 1441.8 7.552ZM1502.86 135V9.69999H1529.89V55.166L1568.91 9.69999H1604.35L1557.81 64.295L1607.93 135H1574.82L1539.73 85.954L1529.89 97.231V135H1502.86ZM1621.55 135V9.69999H1704.43V36.908H1648.58V58.567H1692.08V85.417H1648.58V107.792H1704.43V135H1621.55ZM1753.64 36.908V67.517H1776.55C1780.73 67.517 1784.37 65.9657 1787.47 62.863C1790.45 59.8797 1791.94 56.2997 1791.94 52.123C1791.94 48.0657 1790.45 44.4857 1787.47 41.383C1784.37 38.3997 1780.73 36.908 1776.55 36.908H1753.64ZM1726.61 9.69999H1776.55C1788.24 9.69999 1798.27 13.8767 1806.62 22.23C1814.98 30.464 1819.15 40.4283 1819.15 52.123C1819.15 59.283 1817.48 65.906 1814.14 71.992C1810.8 78.078 1806.32 83.0303 1800.71 86.849L1819.15 135H1790.15L1774.58 94.725H1753.64V135H1726.61V9.69999Z" fill="white"/>
</svg>
