<svg width="30" height="30" viewBox="0 0 30 30" fill="none" xmlns="http://www.w3.org/2000/svg">
<path d="M8.66699 4C7.01014 4 5.66699 5.34315 5.66699 7V23C5.66699 24.6569 7.01014 26 8.66699 26H9.33366C10.9905 26 12.3337 24.6569 12.3337 23V7C12.3337 5.34315 10.9905 4 9.33366 4L8.66699 4Z" fill="white"/>
<path d="M20.0003 4C18.3435 4 17.0003 5.34315 17.0003 7V23C17.0003 24.6569 18.3435 26 20.0003 26H20.667C22.3238 26 23.667 24.6569 23.667 23V7C23.667 5.34315 22.3238 4 20.667 4L20.0003 4Z" fill="white"/>
</svg>
