<svg width="342" height="274" viewBox="0 0 342 274" fill="none" xmlns="http://www.w3.org/2000/svg">
<path d="M190.101 52.2256L196.933 127.764L156.432 86.427C152.28 82.2214 149.78 76.6628 149.39 70.7671C149 64.8714 150.746 59.0323 154.309 54.317C157.847 49.602 163.068 46.4309 168.885 45.4629C174.703 44.4948 180.669 45.8043 185.546 49.1192L190.101 52.2256Z" fill="#558B2F"/>
<path d="M190.07 52.2242L196.902 127.763L229.339 79.8437C232.664 74.9608 234.12 69.0458 233.442 63.1788C232.764 57.3119 229.997 51.8844 225.646 47.8874C221.327 43.8805 215.628 41.6924 209.735 41.7783C203.842 41.8642 198.21 44.2177 194.009 48.3488L190.07 52.2242Z" fill="#33691E"/>
<path d="M104.853 170.238L81.4941 242.393L60.4438 188.507C58.2779 183.012 58.162 176.922 60.117 171.349C62.0719 165.775 65.9675 161.091 71.0924 158.15C76.1938 155.19 82.2414 154.312 87.9749 155.698C93.7083 157.085 98.6851 160.63 101.868 165.593L104.853 170.238Z" fill="#558B2F"/>
<path d="M104.791 170.208L81.4633 242.394L130.088 210.991C135.057 207.819 138.722 202.97 140.417 197.325C142.111 191.681 141.722 185.616 139.321 180.234C136.912 174.859 132.524 170.617 127.069 168.389C121.613 166.162 115.509 166.119 110.023 168.27L104.791 170.208Z" fill="#33691E"/>
<path d="M230.447 84.55L273.286 147.14L217.891 130.808C212.22 129.159 207.331 125.527 204.116 120.575C200.902 115.624 199.575 109.682 200.379 103.834C201.157 98.0089 204.147 92.7057 208.731 89.0239C213.314 85.342 219.14 83.5639 224.999 84.0578L230.447 84.55Z" fill="#689F38"/>
<path d="M230.417 84.5506L273.256 147.171L278.18 89.5331C278.704 83.6497 277.093 77.7744 273.64 72.9802C270.188 68.186 265.125 64.793 259.377 63.4207C253.649 62.0378 247.609 62.9115 242.509 65.8608C237.409 68.8101 233.641 73.6085 231.986 79.2603L230.417 84.5506Z" fill="#558B2F"/>
<path d="M126.888 62.036L87.8956 127.086L79.5248 69.8789C78.6499 64.038 79.9063 58.0775 83.0648 53.0857C86.2232 48.094 91.0729 44.4041 96.7281 42.69C102.367 40.9759 108.448 41.4915 113.717 44.1302C118.986 46.7688 123.04 51.329 125.041 56.8689L126.888 62.036Z" fill="#558B2F"/>
<path d="M126.857 62.0052L87.8335 127.086L142.306 107.433C147.862 105.445 152.519 101.528 155.428 96.3966C158.337 91.2651 159.305 85.2599 158.155 79.475C157.03 73.6883 153.715 68.5586 148.899 65.1551C144.083 61.7515 138.138 60.3367 132.304 61.2055L126.857 62.0052Z" fill="#33691E"/>
<path d="M144.522 87.2568L187.33 149.847L131.934 133.515C126.263 131.865 121.375 128.234 118.16 123.282C114.946 118.33 113.619 112.389 114.423 106.541C115.201 100.716 118.191 95.4125 122.775 91.7307C127.358 88.0488 133.184 86.2707 139.043 86.7646L144.522 87.2568Z" fill="#7CB342"/>
<path d="M144.461 87.2874L187.3 149.847L192.224 92.2086C192.748 86.3252 191.136 80.4499 187.684 75.6557C184.231 70.8615 179.169 67.4684 173.42 66.0962C167.693 64.7054 161.649 65.5757 156.547 68.5261C151.445 71.4766 147.678 76.2797 146.03 81.9358L144.461 87.2874Z" fill="#689F38"/>
<path d="M106.76 219.818L44.5939 249.929L95.4658 261.247C100.685 262.394 106.142 261.686 110.894 259.243C115.647 256.801 119.398 252.778 121.502 247.868C123.589 243.058 123.686 237.617 121.771 232.736C119.857 227.854 116.086 223.929 111.284 221.817L106.76 219.818Z" fill="#689F38"/>
<path d="M112.854 216.804L44.5631 249.898L96.6353 254.481C102.278 254.818 107.908 253.648 112.949 251.091C117.99 248.534 122.259 244.683 125.318 239.933C130.889 230.706 127.38 220.956 117.378 218.096L112.854 216.804Z" fill="url(#paint0_linear_36_33245)"/>
<path d="M199.734 91.4089L249.959 43.9822L198.041 48.3496C192.719 48.8369 187.732 51.1596 183.937 54.9195C180.141 58.6794 177.772 63.6422 177.237 68.9566C176.702 74.1733 178.252 79.3898 181.55 83.469C184.847 87.5481 189.625 90.159 194.841 90.7324L199.734 91.4089Z" fill="#689F38"/>
<path d="M194.779 96.053L249.929 43.9512L198.903 55.2388C193.415 56.6018 188.391 59.4043 184.35 63.3568C180.308 67.3092 177.396 72.2684 175.914 77.722C173.421 88.333 179.668 96.4528 190.07 96.176L194.779 96.053Z" fill="url(#paint1_linear_36_33245)"/>
<path d="M133.904 60.6516L103.652 16.9771L141.998 28.634C145.92 29.8525 149.294 32.3981 151.54 35.8334C153.787 39.2686 154.766 43.3787 154.309 47.457C153.851 51.4527 151.845 55.1101 148.722 57.6456C145.598 60.181 141.605 61.3926 137.598 61.0206L133.904 60.6516Z" fill="#689F38"/>
<path d="M136.859 65.0509L103.622 17.0706L140.244 33.6791C144.146 35.5928 147.471 38.5048 149.882 42.1187C152.292 45.7327 153.703 49.92 153.97 54.2553C153.97 62.6519 148.153 67.7576 140.367 65.8814L136.859 65.0509Z" fill="url(#paint2_linear_36_33245)"/>
<path d="M52.5031 82.6434L0 90.9169L27.1441 61.452C29.929 58.4221 33.6838 56.4573 37.7619 55.8959C41.84 55.3345 45.9864 56.2117 49.4871 58.3763C52.8958 60.5208 55.3269 63.9155 56.2591 67.8316C57.1912 71.7477 56.55 75.8729 54.4727 79.3216L52.5031 82.6434Z" fill="#689F38"/>
<path d="M57.6731 81.875L0 91.102L30.7754 65.3586C34.2073 62.6581 38.2966 60.9184 42.6232 60.3184C46.9497 59.7185 51.3579 60.2797 55.3958 61.9445C63.0281 65.42 65.0285 73.0477 59.9813 79.2298L57.6731 81.875Z" fill="url(#paint3_linear_36_33245)"/>
<path d="M297.599 103.711L341.177 95.9294L311.787 80.0898C308.753 78.4687 305.248 77.9565 301.877 78.6415C298.506 79.3265 295.481 81.1658 293.321 83.842C291.194 86.443 290.184 89.7803 290.513 93.1235C290.842 96.4667 292.482 99.5437 295.075 101.681L297.599 103.711Z" fill="#689F38"/>
<path d="M293.26 104.419L341.147 95.8376L309.848 83.9964C306.426 82.7928 302.743 82.5259 299.182 83.2235C295.622 83.9212 292.313 85.5578 289.598 87.9639C284.551 92.7927 285.043 99.344 290.706 102.819L293.26 104.419Z" fill="url(#paint4_linear_36_33245)"/>
<path d="M280.427 100.174L336.624 140.342L278.15 151.692C275.421 152.365 272.575 152.417 269.823 151.844C267.071 151.271 264.483 150.088 262.249 148.381C260.016 146.675 258.195 144.489 256.92 141.985C255.645 139.481 254.95 136.723 254.884 133.914C254.623 127.271 256.383 120.705 259.933 115.083C263.482 109.46 268.653 105.045 274.765 102.419L280.427 100.174Z" fill="#689F38"/>
<path d="M274.948 96.1763L336.499 140.312L284.427 136.037C278.804 135.425 273.445 133.327 268.901 129.959C264.358 126.592 260.794 122.076 258.575 116.876C254.698 106.695 259.745 97.8063 270.116 96.6991L274.948 96.1763Z" fill="url(#paint5_linear_36_33245)"/>
<path d="M186.346 27.9577L158.464 0L161.541 29.957C161.846 33.0147 163.237 35.8622 165.461 37.9837C167.685 40.1051 170.597 41.3602 173.667 41.5215C176.726 41.6794 179.728 40.6565 182.054 38.6644C184.38 36.6723 185.85 33.8632 186.162 30.8181L186.346 27.9577Z" fill="url(#paint6_linear_36_33245)"/>
<path d="M186.346 27.9579L158.464 0.0307617L183.853 7.62776C186.624 8.54643 189.13 10.1236 191.157 12.2236C193.183 14.3237 194.669 16.8838 195.487 19.6843C196.841 25.0052 193.825 28.9114 188.685 28.2348L186.346 27.9579Z" fill="url(#paint7_linear_36_33245)"/>
<path d="M121.38 116.722L70.4772 172.946L73.5547 115.184C73.8287 109.283 76.2181 103.677 80.2865 99.3909C84.3549 95.1047 89.8308 92.4247 95.7133 91.8402C101.58 91.2452 107.45 92.9287 112.108 96.5418C116.766 100.155 119.854 105.421 120.733 111.248L121.38 116.722Z" fill="#689F38"/>
<path d="M121.348 116.692L70.4453 172.915L127.688 164.242C133.527 163.371 138.86 160.432 142.713 155.961C146.566 151.489 148.682 145.783 148.677 139.882C148.691 133.987 146.432 128.313 142.368 124.039C138.304 119.766 132.749 117.223 126.857 116.938L121.348 116.692Z" fill="#558B2F"/>
<path d="M117.502 171.623L158.125 235.658L103.191 217.512C97.559 215.663 92.7837 211.845 89.7421 206.76C86.7005 201.675 85.5967 195.664 86.6337 189.831C87.6192 184.022 90.8089 178.816 95.5384 175.298C100.268 171.781 106.173 170.222 112.023 170.946L117.502 171.623Z" fill="url(#paint8_linear_36_33245)"/>
<path d="M117.471 171.622L158.094 235.688L165.018 178.235C165.739 172.373 164.327 166.448 161.039 161.541C157.75 156.634 152.805 153.072 147.107 151.507C141.432 149.922 135.363 150.585 130.164 153.357C124.965 156.13 121.036 160.799 119.194 166.394L117.471 171.622Z" fill="#689F38"/>
<path d="M194.779 148.494L187.362 223.971L155.294 175.806C152.004 170.901 150.589 164.978 151.306 159.117C152.024 153.256 154.826 147.848 159.203 143.88C163.562 139.911 169.282 137.77 175.178 137.902C181.074 138.034 186.693 140.428 190.871 144.588L194.779 148.494Z" fill="url(#paint9_linear_36_33245)"/>
<path d="M194.779 148.493L187.393 223.97L228.201 182.941C232.382 178.768 234.922 173.231 235.357 167.341C235.792 161.452 234.094 155.603 230.571 150.861C227.07 146.124 221.878 142.915 216.073 141.902C210.269 140.888 204.296 142.147 199.395 145.417L194.779 148.493Z" fill="#689F38"/>
<path d="M211.674 197.827L204.288 273.334L172.189 225.169C168.903 220.261 167.492 214.336 168.215 208.474C168.939 202.613 171.747 197.207 176.128 193.244C180.479 189.269 186.196 187.125 192.089 187.257C197.982 187.388 203.597 189.786 207.765 193.952L211.674 197.827Z" fill="url(#paint10_linear_36_33245)"/>
<path d="M211.643 197.826L204.226 273.334L245.034 232.274C249.208 228.103 251.743 222.572 252.178 216.69C252.613 210.807 250.919 204.964 247.404 200.225C243.908 195.482 238.716 192.268 232.909 191.254C227.102 190.24 221.127 191.503 216.229 194.781L211.643 197.826Z" fill="#689F38"/>
<path d="M66.6914 175.436L42.071 247.16L82.7561 213.758C87.0424 210.045 90.2312 205.231 91.9778 199.837C93.7244 194.443 93.9623 188.675 92.6657 183.155C89.7728 172.575 80.3557 168.177 70.9384 173.19L66.6914 175.436Z" fill="url(#paint11_linear_36_33245)"/>
<path d="M66.7215 175.467L42.1012 247.192L22.0047 192.906C19.944 187.375 19.9415 181.287 21.998 175.754C24.0544 170.221 28.0327 165.611 33.207 162.765C38.376 159.862 44.4689 159.074 50.2071 160.565C55.9454 162.056 60.8827 165.71 63.9825 170.761L66.7215 175.467Z" fill="url(#paint12_linear_36_33245)"/>
<path d="M271.133 226.308L297.261 273.304L268.086 253.159C264.917 250.814 262.308 247.797 260.445 244.324C258.583 240.852 257.513 237.009 257.314 233.074C257.314 225.754 262.115 222.187 268.332 225.047L271.133 226.308Z" fill="url(#paint13_linear_36_33245)"/>
<path d="M271.102 226.339L297.23 273.335L304.493 232.952C305.22 228.836 304.454 224.595 302.333 220.993C300.212 217.39 296.875 214.662 292.921 213.298C288.989 211.936 284.684 212.134 280.893 213.851C277.103 215.568 274.116 218.672 272.548 222.525L271.102 226.339Z" fill="url(#paint14_linear_36_33245)"/>
<path d="M233.894 183.217V259.063L211.736 214.435C209.436 209.375 208.285 203.87 208.365 198.313C208.445 192.756 209.754 187.286 212.198 182.294C217.153 173.067 225.554 172.145 231.278 179.896L233.894 183.217Z" fill="url(#paint15_linear_36_33245)"/>
<path d="M233.833 183.217V259.063L270.425 214.251C274.179 209.686 276.164 203.923 276.017 198.016C275.87 192.109 273.601 186.452 269.624 182.079C265.672 177.707 260.186 175.024 254.305 174.589C248.425 174.154 242.603 175.999 238.049 179.742L233.833 183.217Z" fill="url(#paint16_linear_36_33245)"/>
<path d="M191.886 127.825L261.131 158.859L211.151 160.735C205.588 160.765 200.087 159.565 195.043 157.22C189.999 154.875 185.536 151.443 181.976 147.171C175.821 138.929 178.191 130.809 187.608 128.717L191.886 127.825Z" fill="url(#paint17_linear_36_33245)"/>
<path d="M191.856 127.886L261.1 158.889L235.156 107.187C232.504 101.927 228.051 97.7926 222.607 95.5351C217.163 93.2775 211.089 93.0467 205.489 94.8846C199.913 96.701 195.245 100.581 192.441 105.728C189.636 110.875 188.91 116.9 190.409 122.566L191.856 127.886Z" fill="url(#paint18_linear_36_33245)"/>
<path d="M81.9254 119.09L8.77246 139.266L44.6564 100.759C48.6271 96.7086 53.6334 93.8246 59.1301 92.4201C64.6267 91.0155 70.4034 91.1444 75.8319 92.7927C86.234 96.3297 90.0195 106.141 84.4492 115.06L81.9254 119.09Z" fill="url(#paint19_linear_36_33245)"/>
<path d="M81.8936 119.09L8.74072 139.236L61.7051 162.611C67.0904 165.011 73.1585 165.4 78.8063 163.706C84.4541 162.013 89.3064 158.35 92.4806 153.384C95.6451 148.408 96.771 142.405 95.625 136.621C94.4789 130.837 91.1488 125.715 86.3255 122.32L81.8936 119.09Z" fill="url(#paint20_linear_36_33245)"/>
<defs>
<linearGradient id="paint0_linear_36_33245" x1="121.6" y1="239.9" x2="90.6676" y2="210.51" gradientUnits="userSpaceOnUse">
<stop stop-color="#CDDC39"/>
<stop offset="1" stop-color="#8BC34A"/>
</linearGradient>
<linearGradient id="paint1_linear_36_33245" x1="180.611" y1="26.2086" x2="218.67" y2="45.0649" gradientUnits="userSpaceOnUse">
<stop stop-color="#CDDC39"/>
<stop offset="1" stop-color="#8BC34A"/>
</linearGradient>
<linearGradient id="paint2_linear_36_33245" x1="130.025" y1="3.24851" x2="98.2799" y2="11.3807" gradientUnits="userSpaceOnUse">
<stop stop-color="#CDDC39"/>
<stop offset="1" stop-color="#8BC34A"/>
</linearGradient>
<linearGradient id="paint3_linear_36_33245" x1="58.1966" y1="25.6834" x2="51.8426" y2="57.8129" gradientUnits="userSpaceOnUse">
<stop stop-color="#CDDC39"/>
<stop offset="1" stop-color="#8BC34A"/>
</linearGradient>
<linearGradient id="paint4_linear_36_33245" x1="256.597" y1="42.8202" x2="270.598" y2="66.2229" gradientUnits="userSpaceOnUse">
<stop stop-color="#CDDC39"/>
<stop offset="1" stop-color="#8BC34A"/>
</linearGradient>
<linearGradient id="paint5_linear_36_33245" x1="249.681" y1="102.505" x2="285.399" y2="78.6451" gradientUnits="userSpaceOnUse">
<stop stop-color="#CDDC39"/>
<stop offset="1" stop-color="#8BC34A"/>
</linearGradient>
<linearGradient id="paint6_linear_36_33245" x1="181.592" y1="35.0651" x2="190.541" y2="7.54691" gradientUnits="userSpaceOnUse">
<stop stop-color="#CDDC39"/>
<stop offset="1" stop-color="#8BC34A"/>
</linearGradient>
<linearGradient id="paint7_linear_36_33245" x1="210.779" y1="3.31005" x2="195.426" y2="9.97672" gradientUnits="userSpaceOnUse">
<stop stop-color="#8BC34A"/>
<stop offset="1" stop-color="#7CB342"/>
</linearGradient>
<linearGradient id="paint8_linear_36_33245" x1="90.5681" y1="162.45" x2="145.61" y2="156.911" gradientUnits="userSpaceOnUse">
<stop stop-color="#8BC34A"/>
<stop offset="1" stop-color="#7CB342"/>
</linearGradient>
<linearGradient id="paint9_linear_36_33245" x1="165.275" y1="173.038" x2="212.138" y2="203.129" gradientUnits="userSpaceOnUse">
<stop stop-color="#8BC34A"/>
<stop offset="1" stop-color="#7CB342"/>
</linearGradient>
<linearGradient id="paint10_linear_36_33245" x1="182.283" y1="222.669" x2="229.116" y2="252.757" gradientUnits="userSpaceOnUse">
<stop stop-color="#8BC34A"/>
<stop offset="1" stop-color="#7CB342"/>
</linearGradient>
<linearGradient id="paint11_linear_36_33245" x1="69.3352" y1="255.727" x2="25.6883" y2="257.01" gradientUnits="userSpaceOnUse">
<stop stop-color="#CDDC39"/>
<stop offset="1" stop-color="#8BC34A"/>
</linearGradient>
<linearGradient id="paint12_linear_36_33245" x1="23.4534" y1="173.92" x2="52.3155" y2="208.032" gradientUnits="userSpaceOnUse">
<stop stop-color="#8BC34A"/>
<stop offset="1" stop-color="#7CB342"/>
</linearGradient>
<linearGradient id="paint13_linear_36_33245" x1="289.423" y1="254.414" x2="314.391" y2="249.024" gradientUnits="userSpaceOnUse">
<stop stop-color="#CDDC39"/>
<stop offset="1" stop-color="#8BC34A"/>
</linearGradient>
<linearGradient id="paint14_linear_36_33245" x1="307.043" y1="176.116" x2="291.309" y2="203.563" gradientUnits="userSpaceOnUse">
<stop stop-color="#8BC34A"/>
<stop offset="1" stop-color="#7CB342"/>
</linearGradient>
<linearGradient id="paint15_linear_36_33245" x1="251.846" y1="199.58" x2="286.428" y2="210.331" gradientUnits="userSpaceOnUse">
<stop stop-color="#CDDC39"/>
<stop offset="1" stop-color="#8BC34A"/>
</linearGradient>
<linearGradient id="paint16_linear_36_33245" x1="274.241" y1="200.041" x2="235.845" y2="222.914" gradientUnits="userSpaceOnUse">
<stop stop-color="#8BC34A"/>
<stop offset="1" stop-color="#7CB342"/>
</linearGradient>
<linearGradient id="paint17_linear_36_33245" x1="173.307" y1="175.92" x2="197.052" y2="148.975" gradientUnits="userSpaceOnUse">
<stop stop-color="#CDDC39"/>
<stop offset="1" stop-color="#8BC34A"/>
</linearGradient>
<linearGradient id="paint18_linear_36_33245" x1="198.536" y1="106.394" x2="203.591" y2="150.694" gradientUnits="userSpaceOnUse">
<stop stop-color="#8BC34A"/>
<stop offset="1" stop-color="#7CB342"/>
</linearGradient>
<linearGradient id="paint19_linear_36_33245" x1="33.9086" y1="58.1846" x2="29.7145" y2="101.948" gradientUnits="userSpaceOnUse">
<stop stop-color="#CDDC39"/>
<stop offset="1" stop-color="#8BC34A"/>
</linearGradient>
<linearGradient id="paint20_linear_36_33245" x1="52.9982" y1="135.363" x2="20.6952" y2="104.665" gradientUnits="userSpaceOnUse">
<stop stop-color="#8BC34A"/>
<stop offset="1" stop-color="#7CB342"/>
</linearGradient>
</defs>
</svg>
