<svg width="425" height="779" viewBox="0 0 425 779" fill="none" xmlns="http://www.w3.org/2000/svg">
<path d="M300.463 587.2C300.893 587.195 301.31 587.047 301.647 586.78C302.041 586.465 302.295 586.007 302.352 585.506C302.409 585.005 302.266 584.502 301.953 584.106C297.116 578.23 293.724 571.302 292.051 563.878C290.379 556.455 290.471 548.743 292.321 541.361C297.825 517.945 319.077 496.362 350.152 482.152C366.435 474.741 374.462 466.872 374.729 457.704C375.188 439.865 343.769 423.325 318.542 410.299C314.299 408.084 310.209 405.944 306.502 403.92C299.698 400.1 296.029 396.662 295.035 392.765C293.353 386.386 298.322 378.326 305.852 366.026C320.614 343.686 331.47 319.001 337.959 293.027C357.07 214.145 229.98 166.473 224.591 164.486C224.351 164.364 224.088 164.293 223.819 164.279C223.551 164.266 223.282 164.308 223.031 164.406C222.78 164.503 222.553 164.651 222.363 164.842C222.174 165.033 222.027 165.262 221.932 165.514C221.837 165.766 221.797 166.035 221.813 166.303C221.829 166.572 221.903 166.833 222.027 167.072C222.152 167.31 222.326 167.519 222.537 167.686C222.748 167.853 222.992 167.973 223.253 168.039C224.553 168.535 352.675 216.552 334.099 292.11C327.689 317.701 316.988 342.021 302.45 364.04C294.385 377.066 289.072 385.661 291.213 393.644C292.512 398.61 296.755 402.927 304.552 407.167C308.374 409.191 312.197 411.33 316.669 413.584C340.979 426.266 371.213 442.043 370.792 457.475C370.792 464.81 363.148 471.915 348.432 478.561C316.134 493.268 294.271 515.806 288.499 540.368C286.536 548.287 286.451 556.555 288.249 564.513C290.048 572.471 293.68 579.899 298.857 586.207C299.024 586.491 299.257 586.729 299.537 586.902C299.817 587.075 300.134 587.178 300.463 587.2Z" fill="#7CB342"/>
<path d="M36.5349 487.882C36.1527 487.461 27.0178 477.224 30.152 465.955C32.4454 457.666 40.6251 451.325 54.5764 447.047C57.2286 446.52 59.7243 445.393 61.8714 443.75C64.0186 442.108 65.7597 439.994 66.9605 437.573C71.3561 426.725 61.5711 408.885 50.2572 388.219C41.7335 372.749 32.1014 355.177 27.3236 338.026C22.5457 320.874 26.3298 305.48 37.7966 294.784C26.2966 285.676 18.5986 272.618 16.2006 258.151C15.4798 253.301 15.9179 248.35 17.4791 243.703C19.0403 239.055 21.6801 234.843 25.1829 231.411C71.0501 183.776 274.624 204.213 283.224 205.054C283.735 205.111 284.203 205.368 284.525 205.769C284.847 206.17 284.998 206.682 284.944 207.193C284.846 207.674 284.582 208.106 284.198 208.414C283.813 208.721 283.334 208.883 282.842 208.874C280.74 208.644 72.6171 187.749 27.9348 234.085C24.7935 237.105 22.4301 240.84 21.0457 244.97C19.6613 249.101 19.2973 253.505 19.9847 257.807C22.3853 271.485 29.8493 283.758 40.8923 292.186C64.514 273.889 108.088 276.907 152.273 300.246C166.454 307.886 172.57 314.113 170.964 319.804C167.983 330.195 140.386 329.125 132.13 328.59C103.883 326.604 65.5841 316.825 40.7776 297.267C30.1134 307.008 26.6355 321.027 31.0311 337.032C35.5796 353.764 45.097 371.144 53.506 386.424C65.3168 407.93 75.4838 426.495 70.4384 439.025C69.0329 441.982 66.9637 444.575 64.3915 446.603C61.8192 448.63 58.8132 450.037 55.608 450.714C43.0327 454.534 35.6941 460.072 33.7447 467.025C31.1838 476.231 39.2108 485.284 39.2873 485.361C39.4664 485.538 39.6083 485.749 39.7054 485.982C39.8024 486.215 39.8523 486.464 39.8523 486.717C39.8523 486.969 39.8024 487.218 39.7054 487.451C39.6083 487.684 39.4664 487.895 39.2873 488.073C39.1185 488.23 38.9198 488.351 38.7031 488.43C38.4864 488.509 38.2559 488.543 38.0256 488.531C37.7443 488.542 37.4644 488.489 37.2063 488.376C36.9482 488.264 36.7186 488.095 36.5349 487.882ZM44.1794 294.631C68.6037 313.349 106.177 322.898 132.589 324.732C154.031 326.184 166.339 322.822 167.524 318.735C167.868 317.436 167.753 312.546 150.744 303.455C126.167 290.505 101.896 283.935 81.4083 283.935C68.0521 283.4 54.8824 287.206 43.8738 294.784L44.1794 294.631Z" fill="#7CB342"/>
<path d="M212.054 754.819C195.891 746.969 183.272 733.334 176.698 716.62C161.504 715.974 146.961 710.273 135.379 700.423C103.96 675.326 130.64 634.873 164.467 583.609C186.713 549.918 211.901 511.757 226.579 469.584C247.372 409.841 224.285 383.521 197.529 353.076C177.309 330.157 156.402 306.244 152.694 265.218C144.209 171.094 234.835 133.735 235.752 133.353C235.989 133.22 236.252 133.139 236.523 133.116C236.794 133.092 237.066 133.127 237.322 133.217C237.579 133.307 237.813 133.451 238.01 133.639C238.206 133.826 238.36 134.054 238.461 134.306C238.563 134.558 238.609 134.829 238.598 135.1C238.586 135.371 238.517 135.637 238.394 135.88C238.272 136.122 238.099 136.336 237.887 136.506C237.675 136.676 237.429 136.8 237.166 136.868C236.287 137.25 148.26 173.539 156.516 264.874C160.109 304.525 180.597 327.865 200.396 350.441C226.808 380.465 251.729 408.847 230.172 470.73C215.341 513.284 190 551.675 167.639 585.558C134.921 635.217 109.044 674.371 137.749 697.291C148.36 706.246 161.545 711.597 175.399 712.571C173.305 706.408 173.066 699.768 174.71 693.471C177.768 683.921 186.751 679.872 199.25 682.011C210.984 684.188 213.659 689.651 214.233 692.898C215.265 698.704 210.946 705.274 202.957 710.049C196.125 713.941 188.455 716.129 180.597 716.429C187.018 731.682 198.788 744.069 213.698 751.267C214.152 751.482 214.502 751.867 214.674 752.339C214.846 752.811 214.824 753.331 214.615 753.788C214.459 754.113 214.216 754.39 213.912 754.585C213.608 754.781 213.256 754.888 212.895 754.896C212.612 754.923 212.327 754.897 212.054 754.819ZM178.342 694.655C176.785 700.655 177.105 706.987 179.259 712.8C186.891 712.684 194.371 710.648 201.008 706.879C207.505 703.059 211.213 697.826 210.487 693.662C209.761 689.498 205.594 687.168 198.561 686.022C196.594 685.656 194.599 685.464 192.599 685.449C189.531 685.115 186.441 685.848 183.851 687.525C181.261 689.202 179.329 691.72 178.38 694.655H178.342Z" fill="#7CB342"/>
<path d="M236.822 64.8634L245.307 158.681L195.007 107.341C189.849 102.118 186.744 95.2141 186.26 87.8917C185.776 80.5693 187.944 73.3173 192.369 67.461C196.764 61.6049 203.248 57.6665 210.473 56.4642C217.698 55.2619 225.109 56.8883 231.165 61.0053L236.822 64.8634Z" fill="#558B2F"/>
<path d="M236.784 64.8617L245.269 158.679L285.556 99.1647C289.685 93.1002 291.494 85.7539 290.652 78.4672C289.81 71.1805 286.373 64.4396 280.97 59.4755C275.605 54.4989 268.527 51.7813 261.208 51.888C253.889 51.9948 246.894 54.9177 241.677 60.0485L236.784 64.8617Z" fill="#33691E"/>
<path d="M157.166 288.749L165.651 382.567L115.35 331.265C110.203 326.044 107.105 319.148 106.62 311.834C106.136 304.52 108.299 297.276 112.713 291.423C117.095 285.564 123.57 281.619 130.789 280.409C138.008 279.2 145.416 280.818 151.471 284.929L157.166 288.749Z" fill="#558B2F"/>
<path d="M157.09 288.749L165.575 382.567L205.862 323.052C209.995 316.992 211.81 309.649 210.975 302.362C210.14 295.076 206.711 288.332 201.313 283.363C195.938 278.393 188.855 275.68 181.533 275.787C174.211 275.893 167.21 278.811 161.982 283.936L157.09 288.749Z" fill="#33691E"/>
<path d="M297.099 282.255L305.584 376.073L255.283 324.733C250.126 319.51 247.021 312.606 246.537 305.284C246.053 297.961 248.221 290.709 252.646 284.853C257.034 279 263.511 275.062 270.73 273.86C277.949 272.657 285.353 274.283 291.404 278.397L297.099 282.255Z" fill="#558B2F"/>
<path d="M297.022 282.255L305.508 376.072L345.833 316.558C349.966 310.498 351.781 303.154 350.946 295.868C350.111 288.581 346.682 281.838 341.285 276.869C335.914 271.89 328.829 269.171 321.504 269.277C314.179 269.384 307.177 272.308 301.953 277.441L297.022 282.255Z" fill="#33691E"/>
<path d="M130.946 211.433L101.934 301.049L75.7901 234.123C73.1001 227.299 72.9562 219.735 75.3842 212.813C77.8122 205.891 82.6505 200.073 89.0155 196.42C95.3514 192.744 102.863 191.653 109.983 193.375C117.104 195.097 123.285 199.5 127.238 205.665L130.946 211.433Z" fill="#558B2F"/>
<path d="M130.869 211.396L101.896 301.05L162.288 262.048C168.459 258.108 173.011 252.086 175.115 245.075C177.22 238.065 176.737 230.533 173.754 223.849C170.762 217.173 165.313 211.905 158.538 209.138C151.762 206.371 144.18 206.318 137.366 208.989L130.869 211.396Z" fill="#33691E"/>
<path d="M286.932 105.01L340.138 182.746L271.337 162.462C264.294 160.413 258.222 155.903 254.23 149.753C250.237 143.603 248.59 136.224 249.588 128.961C250.554 121.726 254.268 115.139 259.961 110.566C265.653 105.994 272.888 103.785 280.166 104.399L286.932 105.01Z" fill="#689F38"/>
<path d="M286.894 105.01L340.1 182.784L346.216 111.199C346.866 103.892 344.865 96.5945 340.577 90.6402C336.29 84.6859 330.002 80.4718 322.862 78.7675C315.749 77.0499 308.246 78.135 301.912 81.798C295.578 85.461 290.898 91.4205 288.844 98.44L286.894 105.01Z" fill="#558B2F"/>
<path d="M158.313 77.0477L109.885 157.839L99.4884 86.7885C98.4018 79.5342 99.9623 72.1313 103.885 65.9316C107.808 59.7319 113.831 55.1491 120.855 53.0202C127.858 50.8913 135.411 51.5318 141.955 54.8089C148.499 58.0861 153.534 63.7498 156.019 70.6303L158.313 77.0477Z" fill="#558B2F"/>
<path d="M158.274 77.0095L109.808 157.839L177.462 133.43C184.362 130.961 190.146 126.096 193.759 119.723C197.372 113.35 198.574 105.892 197.146 98.7067C195.749 91.5197 191.631 85.1487 185.65 80.9215C179.668 76.6944 172.285 74.9372 165.039 76.0163L158.274 77.0095Z" fill="#33691E"/>
<path d="M180.214 108.372L233.381 186.108L164.58 165.824C157.537 163.775 151.466 159.264 147.473 153.115C143.481 146.965 141.833 139.585 142.832 132.323C143.797 125.088 147.512 118.501 153.204 113.928C158.897 109.356 166.132 107.147 173.41 107.761L180.214 108.372Z" fill="#7CB342"/>
<path d="M180.138 108.41L233.344 186.108L239.46 114.522C240.11 107.215 238.108 99.9177 233.82 93.9634C229.533 88.0091 223.245 83.7949 216.106 82.0907C208.992 80.3633 201.485 81.4442 195.148 85.1086C188.812 88.773 184.134 94.7384 182.087 101.763L180.138 108.41Z" fill="#689F38"/>
<path d="M272.332 477.493L309.599 564.015L245.805 530.858C239.286 527.495 234.194 521.903 231.457 515.101C228.721 508.299 228.523 500.74 230.898 493.804C233.255 486.874 238.19 481.116 244.68 477.724C251.17 474.331 258.717 473.565 265.757 475.583L272.332 477.493Z" fill="url(#paint0_linear_36_33246)"/>
<path d="M272.293 477.492L309.561 564.013L329.322 494.949C331.358 487.903 330.79 480.361 327.724 473.699C324.657 467.037 319.296 461.699 312.619 458.659C305.973 455.601 298.403 455.221 291.484 457.597C284.564 459.973 278.827 464.923 275.466 471.418L272.293 477.492Z" fill="url(#paint1_linear_36_33246)"/>
<path d="M151.357 459.806L135.151 544.036L92.0738 484.063C89.8994 481.332 88.3654 478.148 87.5848 474.747C86.8042 471.345 86.7969 467.812 87.5634 464.407C88.3298 461.002 89.8506 457.812 92.0136 455.072C94.1767 452.333 96.9271 450.112 100.062 448.575C107.422 444.831 115.745 443.403 123.933 444.481C132.121 445.558 139.79 449.09 145.929 454.611L151.357 459.806Z" fill="#689F38"/>
<path d="M152.962 451.516L135.227 544.035L112.981 482.916C110.753 476.26 110.34 469.131 111.785 462.263C113.229 455.395 116.479 449.035 121.199 443.838C130.678 434.136 143.33 435.243 149.981 446.321L152.962 451.516Z" fill="url(#paint2_linear_36_33246)"/>
<path d="M149.369 358.31L213.507 415.303L140.005 421.682C136.542 422.157 133.017 421.849 129.689 420.78C126.361 419.712 123.316 417.911 120.777 415.51C118.239 413.108 116.272 410.168 115.022 406.906C113.772 403.644 113.27 400.143 113.554 396.662C114.111 388.423 117.152 380.546 122.276 374.068C127.4 367.59 134.367 362.815 142.26 360.372L149.369 358.31Z" fill="#689F38"/>
<path d="M143.254 352.695L213.545 415.304L149.751 403.233C142.888 401.73 136.549 398.43 131.384 393.67C126.218 388.911 122.413 382.864 120.358 376.149C116.88 363.085 124.181 352.771 137.253 352.733L143.254 352.695Z" fill="url(#paint3_linear_36_33246)"/>
<path d="M133.315 273.011L56.1047 310.408L119.287 324.465C125.77 325.89 132.546 325.01 138.449 321.977C144.352 318.943 149.011 313.947 151.623 307.849C154.216 301.874 154.336 295.118 151.958 289.055C149.58 282.992 144.898 278.117 138.933 275.494L133.315 273.011Z" fill="#689F38"/>
<path d="M140.883 269.267L56.0664 310.37L120.739 316.062C127.747 316.48 134.74 315.027 141.001 311.851C147.261 308.676 152.564 303.893 156.363 297.993C163.281 286.533 158.924 274.424 146.501 270.872L140.883 269.267Z" fill="url(#paint4_linear_36_33246)"/>
<path d="M248.786 113.529L311.166 54.6252L246.684 60.0495C240.074 60.6547 233.881 63.5395 229.166 68.2093C224.452 72.8791 221.51 79.0428 220.846 85.6431C220.181 92.1222 222.107 98.6011 226.202 103.667C230.298 108.734 236.231 111.976 242.709 112.688L248.786 113.529Z" fill="#689F38"/>
<path d="M242.633 119.297L311.128 54.5869L247.754 68.606C240.939 70.2989 234.699 73.7795 229.68 78.6884C224.66 83.5973 221.043 89.7566 219.202 96.5298C216.106 109.709 223.865 119.793 236.784 119.449L242.633 119.297Z" fill="url(#paint5_linear_36_33246)"/>
<path d="M167.027 75.3284L129.455 21.0852L177.08 35.5629C181.95 37.0763 186.14 40.238 188.931 44.5045C191.721 48.771 192.937 53.8756 192.369 58.9409C191.801 63.9035 189.31 68.4459 185.43 71.5949C181.55 74.7439 176.591 76.2487 171.614 75.7867L167.027 75.3284Z" fill="#689F38"/>
<path d="M170.697 80.7924L129.416 21.2014L174.901 41.8289C179.747 44.2058 183.876 47.8224 186.871 52.3109C189.865 56.7994 191.617 62 191.948 67.3843C191.948 77.8128 184.724 84.154 175.054 81.8238L170.697 80.7924Z" fill="url(#paint6_linear_36_33246)"/>
<path d="M65.9278 102.642L0.719727 112.917L34.4324 76.3224C37.8911 72.5593 42.5545 70.119 47.6195 69.4218C52.6845 68.7246 57.8342 69.814 62.1821 72.5024C66.4155 75.1659 69.435 79.382 70.5927 84.2457C71.7505 89.1094 70.954 94.2329 68.3741 98.5162L65.9278 102.642Z" fill="#689F38"/>
<path d="M72.349 101.688L0.719727 113.147L38.9424 81.1746C43.2047 77.8205 48.2835 75.6599 53.6571 74.9147C59.0307 74.1696 64.5055 74.8667 69.5205 76.9343C78.9998 81.2508 81.4842 90.7242 75.2157 98.4023L72.349 101.688Z" fill="url(#paint7_linear_36_33246)"/>
<path d="M370.334 128.808L424.457 119.143L387.954 99.4704C384.187 97.4571 379.834 96.8209 375.647 97.6716C371.461 98.5224 367.702 100.807 365.021 104.131C362.379 107.361 361.125 111.506 361.533 115.658C361.941 119.81 363.978 123.632 367.199 126.286L370.334 128.808Z" fill="#689F38"/>
<path d="M364.945 129.687L424.42 119.029L385.547 104.322C381.296 102.828 376.723 102.496 372.3 103.363C367.878 104.229 363.768 106.262 360.397 109.25C354.128 115.247 354.74 123.384 361.773 127.7L364.945 129.687Z" fill="url(#paint8_linear_36_33246)"/>
<path d="M301.075 587.583L331.118 604.658L321.333 580.516C320.333 578.038 318.499 575.988 316.147 574.718C313.795 573.449 311.073 573.04 308.452 573.564C305.943 574.116 303.745 575.618 302.319 577.754C300.894 579.891 300.352 582.496 300.807 585.023L301.075 587.583Z" fill="url(#paint9_linear_36_33246)"/>
<path d="M298.092 585.94L331.079 604.658L318.236 581.738C316.77 579.324 314.688 577.343 312.202 576C309.716 574.657 306.917 574.001 304.093 574.098C302.938 574.051 301.79 574.292 300.751 574.8C299.713 575.307 298.818 576.065 298.146 577.006C297.475 577.946 297.048 579.039 296.905 580.185C296.762 581.331 296.908 582.495 297.328 583.571L298.092 585.94Z" fill="#689F38"/>
<path d="M256.966 380.657L300.463 454.611L228.528 438.223C225.091 437.606 221.836 436.225 219.003 434.184C216.17 432.143 213.832 429.492 212.16 426.428C210.487 423.364 209.524 419.964 209.34 416.479C209.157 412.994 209.758 409.511 211.099 406.289C214.164 398.619 219.483 392.057 226.354 387.468C233.225 382.879 241.325 380.477 249.589 380.58L256.966 380.657Z" fill="#689F38"/>
<path d="M252.724 373.284L300.502 454.496L243.55 423.402C237.483 419.861 232.467 414.774 229.015 408.659C225.563 402.544 223.799 395.622 223.904 388.602C224.63 375.079 234.873 367.554 247.181 371.527L252.724 373.284Z" fill="url(#paint10_linear_36_33246)"/>
<path d="M349.007 124.415L418.802 174.303L346.178 188.399C342.789 189.235 339.254 189.299 335.836 188.588C332.418 187.876 329.204 186.407 326.43 184.287C323.656 182.168 321.394 179.453 319.811 176.343C318.228 173.233 317.364 169.808 317.282 166.32C316.958 158.069 319.144 149.914 323.553 142.931C327.961 135.948 334.384 130.464 341.974 127.204L349.007 124.415Z" fill="#689F38"/>
<path d="M342.201 119.45L418.647 174.266L353.974 168.956C346.99 168.196 340.334 165.59 334.691 161.408C329.048 157.225 324.622 151.617 321.867 145.158C317.051 132.514 323.319 121.474 336.2 120.099L342.201 119.45Z" fill="url(#paint11_linear_36_33246)"/>
<path d="M195.35 645.837L220.959 714.214L172.837 686.137C167.93 683.282 164.207 678.766 162.342 673.406C160.477 668.046 160.593 662.196 162.67 656.915C164.746 651.63 168.782 647.351 173.937 644.967C179.093 642.583 184.969 642.279 190.343 644.118L195.35 645.837Z" fill="url(#paint12_linear_36_33246)"/>
<path d="M195.312 645.837L220.921 714.214L227.648 665.662C228.209 660.287 227.459 654.856 225.462 649.833C223.465 644.811 220.281 640.346 216.181 636.822C208.231 630.481 199.592 632.62 196.534 641.75L195.312 645.837Z" fill="url(#paint13_linear_36_33246)"/>
<path d="M60.8073 414.654L77.9693 460.493L45.6709 441.661C42.3761 439.731 39.88 436.688 38.6324 433.081C37.3849 429.473 37.4679 425.539 38.8671 421.988C40.2645 418.454 42.9702 415.593 46.4221 414C49.8739 412.407 53.8073 412.203 57.4055 413.431L60.8073 414.654Z" fill="url(#paint14_linear_36_33246)"/>
<path d="M60.7693 414.655L77.9695 460.494L82.4795 427.871C82.8673 424.272 82.3745 420.632 81.0429 417.265C79.7112 413.898 77.5806 410.904 74.835 408.542C69.522 404.264 63.7124 405.716 61.6483 411.828L60.7693 414.655Z" fill="url(#paint15_linear_36_33246)"/>
<path d="M232.16 34.7231L197.53 0L201.352 37.2062C201.73 41.0038 203.458 44.5404 206.22 47.1752C208.983 49.81 212.598 51.3688 216.412 51.5692C220.211 51.7653 223.94 50.4948 226.828 48.0206C229.717 45.5464 231.543 42.0577 231.93 38.2756L232.16 34.7231Z" fill="url(#paint16_linear_36_33246)"/>
<path d="M232.16 34.7234L197.53 0.0383301L229.063 9.4737C232.504 10.6147 235.617 12.5735 238.134 15.1817C240.65 17.7899 242.496 20.9696 243.512 24.4478C245.193 31.0563 241.448 35.9077 235.064 35.0673L232.16 34.7234Z" fill="url(#paint17_linear_36_33246)"/>
<path d="M197.147 557.597L283.11 596.14L220.157 600.419C213.212 600.679 206.305 599.279 200.009 596.336C193.714 593.393 188.212 588.991 183.961 583.496C176.316 572.839 179.794 562.028 191.605 558.972L197.147 557.597Z" fill="url(#paint18_linear_36_33246)"/>
<path d="M197.109 557.634L283.11 596.177L246.454 541.743C242.373 535.988 236.777 531.476 230.287 528.704C223.797 525.933 216.666 525.012 209.684 526.043C196.192 528.526 189.617 540.024 194.739 552.133L197.109 557.634Z" fill="url(#paint19_linear_36_33246)"/>
<path d="M65.8905 335.925L95.7421 399.909L57.9403 371.489C53.8665 368.244 50.6298 364.07 48.5018 359.318C46.3737 354.566 45.4159 349.374 45.7088 344.176C46.6261 334.397 53.8886 329.966 62.1447 334.053L65.8905 335.925Z" fill="url(#paint20_linear_36_33246)"/>
<path d="M65.8528 335.925L95.7049 399.909L101.667 351.129C102.136 345.892 101.154 340.626 98.8282 335.91C96.5023 331.194 92.9224 327.208 88.4808 324.389C79.6513 319.194 70.2483 322.479 67.2287 332.029L65.8528 335.925Z" fill="url(#paint21_linear_36_33246)"/>
<path d="M201.81 436.62L138.552 506.486L142.374 434.71C142.724 427.381 145.702 420.423 150.761 415.106C155.821 409.79 162.626 406.471 169.932 405.754C177.216 405.007 184.507 407.095 190.289 411.585C196.07 416.075 199.896 422.62 200.969 429.858L201.81 436.62Z" fill="url(#paint22_linear_36_33246)"/>
<path d="M201.772 436.582L138.513 506.448L209.608 495.676C216.867 494.594 223.495 490.939 228.281 485.377C233.067 479.816 235.692 472.719 235.676 465.384C235.694 458.072 232.891 451.035 227.851 445.734C222.811 440.434 215.921 437.279 208.614 436.925L201.772 436.582Z" fill="url(#paint23_linear_36_33246)"/>
<path d="M151.472 144.968L88.2512 214.796L92.0735 143.058C92.4137 135.728 95.3814 128.766 100.434 123.442C105.487 118.119 112.288 114.79 119.594 114.064C126.88 113.325 134.171 115.416 139.956 119.904C145.742 124.391 149.577 130.931 150.669 138.168L151.472 144.968Z" fill="#689F38"/>
<path d="M151.432 144.929L88.2119 214.758L159.306 203.986C166.559 202.905 173.182 199.255 177.967 193.701C182.752 188.148 185.381 181.06 185.374 173.732C185.393 166.41 182.586 159.362 177.539 154.055C172.492 148.748 165.592 145.589 158.274 145.235L151.432 144.929Z" fill="#558B2F"/>
<path d="M138.513 524.134L128.384 598.661L98.3797 549.689C95.3114 544.701 94.1334 538.779 95.059 532.998C95.9846 527.216 98.9525 521.957 103.425 518.175C107.908 514.444 113.644 512.562 119.467 512.909C125.29 513.257 130.761 515.809 134.768 520.046L138.513 524.134Z" fill="url(#paint24_linear_36_33246)"/>
<path d="M138.475 524.133L128.346 598.66L170.391 559.506C174.667 555.502 177.371 550.103 178.016 544.283C178.661 538.463 177.204 532.603 173.907 527.762C170.583 523.009 165.579 519.692 159.905 518.48C154.23 517.268 148.307 518.251 143.329 521.23L138.475 524.133Z" fill="url(#paint25_linear_36_33246)"/>
<path d="M163.626 596.139L134.042 653.438L123.798 605.23C122.741 600.315 123.482 595.184 125.888 590.768C128.293 586.352 132.203 582.945 136.908 581.165C141.606 579.377 146.813 579.471 151.443 581.429C156.072 583.386 159.766 587.055 161.753 591.67L163.626 596.139Z" fill="url(#paint26_linear_36_33246)"/>
<path d="M163.587 596.102L134.003 653.401L179.221 633.69C183.834 631.692 187.576 628.107 189.771 623.587C191.966 619.067 192.468 613.91 191.185 609.052C189.909 604.205 186.815 600.037 182.544 597.411C178.273 594.786 173.154 593.907 168.251 594.956L163.587 596.102Z" fill="url(#paint27_linear_36_33246)"/>
<path d="M216.145 743.169L197.683 779L191.262 748.937C190.612 745.866 191.083 742.664 192.591 739.911C194.098 737.157 196.542 735.034 199.48 733.925C202.382 732.878 205.574 732.97 208.411 734.182C211.248 735.394 213.52 737.637 214.769 740.457L216.145 743.169Z" fill="url(#paint28_linear_36_33246)"/>
<path d="M216.105 743.169L197.643 779L225.852 766.7C228.749 765.494 231.116 763.287 232.519 760.482C233.923 757.676 234.27 754.46 233.496 751.42C232.7 748.39 230.767 745.782 228.098 744.139C225.429 742.496 222.229 741.943 219.163 742.596L216.105 743.169Z" fill="url(#paint29_linear_36_33246)"/>
<path d="M44.6387 350.364L21.323 395.63L13.258 357.431C12.393 353.539 12.9602 349.466 14.8556 345.959C16.751 342.451 19.8474 339.743 23.578 338.331C27.2787 336.907 31.3887 336.975 35.0401 338.522C38.6915 340.068 41.5991 342.972 43.1484 346.621L44.6387 350.364Z" fill="url(#paint30_linear_36_33246)"/>
<path d="M44.6011 350.364L21.2854 395.63L56.9092 380.121C60.5464 378.552 63.4993 375.73 65.2317 372.169C66.9641 368.608 67.361 364.545 66.3501 360.716C65.3631 356.876 62.9214 353.57 59.5407 351.496C56.1601 349.422 52.1054 348.742 48.2326 349.6L44.6011 350.364Z" fill="url(#paint31_linear_36_33246)"/>
<path d="M38.599 472.603L23.31 499.762L17.997 476.843C17.4881 474.433 17.9005 471.921 19.1527 469.8C20.4048 467.679 22.406 466.103 24.7624 465.383C27.1367 464.522 29.7429 464.55 32.0976 465.464C34.4523 466.377 36.3955 468.113 37.5669 470.349L38.599 472.603Z" fill="url(#paint32_linear_36_33246)"/>
<path d="M38.6001 472.604L23.311 499.725L46.5885 490.443C48.8931 489.631 50.807 487.981 51.9477 485.821C53.0884 483.662 53.3719 481.151 52.7423 478.792C51.9432 476.421 50.2942 474.431 48.1133 473.203C45.9324 471.976 43.3741 471.599 40.9316 472.145L38.6001 472.604Z" fill="url(#paint33_linear_36_33246)"/>
<path d="M306.96 337.796L297.787 431.537L257.921 371.717C253.835 365.626 252.077 358.269 252.968 350.989C253.859 343.71 257.34 336.994 262.775 332.066C268.183 327.139 275.281 324.481 282.598 324.645C289.914 324.808 296.886 327.78 302.068 332.945L306.96 337.796Z" fill="url(#paint34_linear_36_33246)"/>
<path d="M306.923 337.796L297.75 431.537L348.433 380.579C353.621 375.392 356.768 368.513 357.301 361.199C357.835 353.884 355.718 346.622 351.338 340.737C346.99 334.854 340.542 330.869 333.333 329.61C326.123 328.351 318.705 329.915 312.619 333.976L306.923 337.796Z" fill="url(#paint35_linear_36_33246)"/>
<path d="M146.655 213.153L197.109 292.684L128.881 270.147C121.887 267.85 115.956 263.109 112.178 256.793C108.4 250.478 107.03 243.012 108.318 235.767C109.541 228.553 113.503 222.087 119.377 217.718C125.251 213.349 132.585 211.413 139.851 212.313L146.655 213.153Z" fill="url(#paint36_linear_36_33246)"/>
<path d="M146.617 213.153L197.07 292.722L205.671 221.365C206.566 214.085 204.812 206.726 200.728 200.632C196.643 194.537 190.502 190.114 183.425 188.17C176.376 186.201 168.839 187.024 162.382 190.468C155.925 193.911 151.044 199.711 148.757 206.659L146.617 213.153Z" fill="#689F38"/>
<path d="M242.633 184.427L233.421 278.169L193.593 218.348C189.507 212.257 187.749 204.9 188.64 197.621C189.531 190.341 193.012 183.625 198.447 178.697C203.861 173.767 210.966 171.109 218.289 171.272C225.611 171.436 232.59 174.409 237.779 179.576L242.633 184.427Z" fill="url(#paint37_linear_36_33246)"/>
<path d="M242.633 184.426L233.459 278.167L284.142 227.209C289.335 222.027 292.49 215.15 293.03 207.836C293.571 200.521 291.461 193.256 287.086 187.368C282.738 181.484 276.29 177.499 269.08 176.24C261.87 174.981 254.453 176.544 248.366 180.606L242.633 184.426Z" fill="#689F38"/>
<path d="M263.615 245.698L254.442 339.478L214.576 279.657C210.494 273.561 208.743 266.202 209.641 258.922C210.539 251.643 214.027 244.929 219.468 240.006C224.872 235.07 231.972 232.406 239.291 232.57C246.61 232.734 253.584 235.712 258.761 240.885L263.615 245.698Z" fill="url(#paint38_linear_36_33246)"/>
<path d="M263.578 245.697L254.366 339.477L305.049 288.481C310.232 283.3 313.381 276.432 313.921 269.126C314.461 261.82 312.357 254.563 307.992 248.677C303.651 242.785 297.202 238.794 289.99 237.535C282.777 236.275 275.357 237.845 269.273 241.916L263.578 245.697Z" fill="#689F38"/>
<path d="M199.517 306.665L253.029 384.057L249.436 318.812C248.878 311.795 246.405 305.065 242.288 299.354C238.17 293.643 232.565 289.169 226.082 286.419C213.354 281.491 201.925 287.832 200.129 300.82L199.517 306.665Z" fill="url(#paint39_linear_36_33246)"/>
<path d="M199.555 306.626L253.066 384.018L183.96 364.193C176.896 362.192 170.788 357.718 166.753 351.588C162.718 345.458 161.024 338.081 161.982 330.807C162.921 323.548 166.622 316.929 172.316 312.326C178.011 307.724 185.261 305.491 192.56 306.091L199.555 306.626Z" fill="url(#paint40_linear_36_33246)"/>
<path d="M83.5496 217.889L52.9714 306.97L103.502 265.485C108.825 260.873 112.786 254.894 114.955 248.195C117.124 241.496 117.42 234.331 115.809 227.477C112.216 214.336 100.52 208.874 88.8243 215.1L83.5496 217.889Z" fill="url(#paint41_linear_36_33246)"/>
<path d="M83.5868 217.928L53.0087 307.009L28.0492 239.587C25.4898 232.717 25.4867 225.156 28.0408 218.284C30.5949 211.412 35.5359 205.686 41.9623 202.152C48.3821 198.547 55.9494 197.568 63.0762 199.419C70.203 201.271 76.3351 205.81 80.185 212.083L83.5868 217.928Z" fill="url(#paint42_linear_36_33246)"/>
<path d="M337.463 281.071L369.914 339.44L333.678 314.419C329.743 311.508 326.502 307.76 324.189 303.447C321.876 299.134 320.548 294.362 320.3 289.475C320.3 280.384 326.263 275.953 333.984 279.505L337.463 281.071Z" fill="url(#paint43_linear_36_33246)"/>
<path d="M337.424 281.11L369.875 339.478L378.896 289.323C379.799 284.21 378.847 278.944 376.213 274.47C373.579 269.995 369.434 266.607 364.524 264.913C359.64 263.222 354.293 263.467 349.585 265.6C344.878 267.732 341.168 271.588 339.221 276.373L337.424 281.11Z" fill="url(#paint44_linear_36_33246)"/>
<path d="M291.213 227.553V321.753L263.693 266.326C260.837 260.041 259.407 253.203 259.506 246.302C259.605 239.401 261.231 232.607 264.266 226.407C270.42 214.947 280.855 213.801 287.964 223.428L291.213 227.553Z" fill="url(#paint45_linear_36_33246)"/>
<path d="M291.136 227.554V321.753L336.583 266.097C341.246 260.427 343.711 253.27 343.529 245.934C343.346 238.597 340.528 231.571 335.589 226.14C330.68 220.71 323.867 217.378 316.564 216.837C309.26 216.297 302.03 218.589 296.373 223.237L291.136 227.554Z" fill="url(#paint46_linear_36_33246)"/>
<path d="M239.039 158.757L325.04 197.3L262.966 199.63C256.057 199.668 249.225 198.178 242.96 195.265C236.695 192.353 231.153 188.091 226.731 182.785C219.087 172.547 222.03 162.463 233.726 159.865L239.039 158.757Z" fill="url(#paint47_linear_36_33246)"/>
<path d="M239.002 158.833L325.003 197.338L292.781 133.125C289.486 126.592 283.956 121.457 277.194 118.653C270.433 115.849 262.889 115.563 255.934 117.845C249.01 120.101 243.211 124.92 239.728 131.313C236.246 137.705 235.343 145.188 237.205 152.225L239.002 158.833Z" fill="url(#paint48_linear_36_33246)"/>
<path d="M102.47 147.908L11.615 172.966L56.1823 125.141C61.1139 120.111 67.3316 116.529 74.1584 114.784C80.9852 113.04 88.1597 113.2 94.9019 115.247C107.821 119.64 112.523 131.826 105.604 142.904L102.47 147.908Z" fill="url(#paint49_linear_36_33246)"/>
<path d="M102.431 147.908L11.5757 172.929L77.3568 201.961C84.0452 204.941 91.5817 205.424 98.5962 203.321C105.611 201.218 111.637 196.669 115.579 190.501C119.51 184.32 120.908 176.864 119.485 169.681C118.061 162.497 113.925 156.137 107.935 151.919L102.431 147.908Z" fill="url(#paint50_linear_36_33246)"/>
<defs>
<linearGradient id="paint0_linear_36_33246" x1="258.322" y1="496.379" x2="327.218" y2="500.587" gradientUnits="userSpaceOnUse">
<stop stop-color="#CDDC39"/>
<stop offset="1" stop-color="#8BC34A"/>
</linearGradient>
<linearGradient id="paint1_linear_36_33246" x1="364.791" y1="451.912" x2="332.276" y2="497.076" gradientUnits="userSpaceOnUse">
<stop stop-color="#8BC34A"/>
<stop offset="1" stop-color="#7CB342"/>
</linearGradient>
<linearGradient id="paint2_linear_36_33246" x1="105.897" y1="473.511" x2="151.119" y2="501.235" gradientUnits="userSpaceOnUse">
<stop stop-color="#CDDC39"/>
<stop offset="1" stop-color="#8BC34A"/>
</linearGradient>
<linearGradient id="paint3_linear_36_33246" x1="165.91" y1="341.904" x2="212.994" y2="316.827" gradientUnits="userSpaceOnUse">
<stop stop-color="#CDDC39"/>
<stop offset="1" stop-color="#8BC34A"/>
</linearGradient>
<linearGradient id="paint4_linear_36_33246" x1="151.746" y1="297.953" x2="113.328" y2="261.451" gradientUnits="userSpaceOnUse">
<stop stop-color="#CDDC39"/>
<stop offset="1" stop-color="#8BC34A"/>
</linearGradient>
<linearGradient id="paint5_linear_36_33246" x1="225.037" y1="32.5509" x2="272.305" y2="55.9701" gradientUnits="userSpaceOnUse">
<stop stop-color="#CDDC39"/>
<stop offset="1" stop-color="#8BC34A"/>
</linearGradient>
<linearGradient id="paint6_linear_36_33246" x1="162.209" y1="4.03462" x2="122.782" y2="14.1347" gradientUnits="userSpaceOnUse">
<stop stop-color="#CDDC39"/>
<stop offset="1" stop-color="#8BC34A"/>
</linearGradient>
<linearGradient id="paint7_linear_36_33246" x1="72.9992" y1="31.8985" x2="65.1075" y2="71.8028" gradientUnits="userSpaceOnUse">
<stop stop-color="#CDDC39"/>
<stop offset="1" stop-color="#8BC34A"/>
</linearGradient>
<linearGradient id="paint8_linear_36_33246" x1="319.41" y1="53.1821" x2="336.799" y2="82.2481" gradientUnits="userSpaceOnUse">
<stop stop-color="#CDDC39"/>
<stop offset="1" stop-color="#8BC34A"/>
</linearGradient>
<linearGradient id="paint9_linear_36_33246" x1="331.118" y1="588.996" x2="300.425" y2="588.996" gradientUnits="userSpaceOnUse">
<stop stop-color="#CDDC39"/>
<stop offset="1" stop-color="#8BC34A"/>
</linearGradient>
<linearGradient id="paint10_linear_36_33246" x1="229.318" y1="403.152" x2="281.419" y2="393.749" gradientUnits="userSpaceOnUse">
<stop stop-color="#CDDC39"/>
<stop offset="1" stop-color="#8BC34A"/>
</linearGradient>
<linearGradient id="paint11_linear_36_33246" x1="310.82" y1="127.31" x2="355.181" y2="97.6762" gradientUnits="userSpaceOnUse">
<stop stop-color="#CDDC39"/>
<stop offset="1" stop-color="#8BC34A"/>
</linearGradient>
<linearGradient id="paint12_linear_36_33246" x1="171.003" y1="696.083" x2="224.131" y2="702.201" gradientUnits="userSpaceOnUse">
<stop stop-color="#CDDC39"/>
<stop offset="1" stop-color="#8BC34A"/>
</linearGradient>
<linearGradient id="paint13_linear_36_33246" x1="219.91" y1="689.897" x2="196.977" y2="710.428" gradientUnits="userSpaceOnUse">
<stop stop-color="#8BC34A"/>
<stop offset="1" stop-color="#7CB342"/>
</linearGradient>
<linearGradient id="paint14_linear_36_33246" x1="50.2401" y1="455.067" x2="85.9263" y2="459.169" gradientUnits="userSpaceOnUse">
<stop stop-color="#CDDC39"/>
<stop offset="1" stop-color="#8BC34A"/>
</linearGradient>
<linearGradient id="paint15_linear_36_33246" x1="75.8881" y1="457.018" x2="60.4928" y2="470.827" gradientUnits="userSpaceOnUse">
<stop stop-color="#8BC34A"/>
<stop offset="1" stop-color="#7CB342"/>
</linearGradient>
<linearGradient id="paint16_linear_36_33246" x1="226.255" y1="43.5503" x2="237.369" y2="9.37315" gradientUnits="userSpaceOnUse">
<stop stop-color="#CDDC39"/>
<stop offset="1" stop-color="#8BC34A"/>
</linearGradient>
<linearGradient id="paint17_linear_36_33246" x1="262.504" y1="4.11117" x2="243.436" y2="12.3911" gradientUnits="userSpaceOnUse">
<stop stop-color="#8BC34A"/>
<stop offset="1" stop-color="#7CB342"/>
</linearGradient>
<linearGradient id="paint18_linear_36_33246" x1="174.84" y1="592.17" x2="207.551" y2="556.824" gradientUnits="userSpaceOnUse">
<stop stop-color="#CDDC39"/>
<stop offset="1" stop-color="#8BC34A"/>
</linearGradient>
<linearGradient id="paint19_linear_36_33246" x1="193.588" y1="525.986" x2="193.879" y2="571.037" gradientUnits="userSpaceOnUse">
<stop stop-color="#8BC34A"/>
<stop offset="1" stop-color="#7CB342"/>
</linearGradient>
<linearGradient id="paint20_linear_36_33246" x1="5.05755" y1="339.03" x2="40.5928" y2="335.007" gradientUnits="userSpaceOnUse">
<stop stop-color="#CDDC39"/>
<stop offset="1" stop-color="#8BC34A"/>
</linearGradient>
<linearGradient id="paint21_linear_36_33246" x1="58.6245" y1="384.72" x2="36.6614" y2="410.108" gradientUnits="userSpaceOnUse">
<stop stop-color="#8BC34A"/>
<stop offset="1" stop-color="#7CB342"/>
</linearGradient>
<linearGradient id="paint22_linear_36_33246" x1="135.843" y1="407.197" x2="160.263" y2="471.353" gradientUnits="userSpaceOnUse">
<stop stop-color="#CDDC39"/>
<stop offset="1" stop-color="#8BC34A"/>
</linearGradient>
<linearGradient id="paint23_linear_36_33246" x1="219.85" y1="485.424" x2="165.551" y2="474.444" gradientUnits="userSpaceOnUse">
<stop stop-color="#8BC34A"/>
<stop offset="1" stop-color="#7CB342"/>
</linearGradient>
<linearGradient id="paint24_linear_36_33246" x1="86.8919" y1="498.649" x2="132.141" y2="529.736" gradientUnits="userSpaceOnUse">
<stop stop-color="#CDDC39"/>
<stop offset="1" stop-color="#8BC34A"/>
</linearGradient>
<linearGradient id="paint25_linear_36_33246" x1="177.729" y1="511.877" x2="137.058" y2="529.408" gradientUnits="userSpaceOnUse">
<stop stop-color="#8BC34A"/>
<stop offset="1" stop-color="#7CB342"/>
</linearGradient>
<linearGradient id="paint26_linear_36_33246" x1="129.842" y1="596.45" x2="157.428" y2="634.851" gradientUnits="userSpaceOnUse">
<stop stop-color="#CDDC39"/>
<stop offset="1" stop-color="#8BC34A"/>
</linearGradient>
<linearGradient id="paint27_linear_36_33246" x1="199.58" y1="633.723" x2="161.477" y2="635.971" gradientUnits="userSpaceOnUse">
<stop stop-color="#8BC34A"/>
<stop offset="1" stop-color="#7CB342"/>
</linearGradient>
<linearGradient id="paint28_linear_36_33246" x1="198.339" y1="748.145" x2="215.508" y2="772.108" gradientUnits="userSpaceOnUse">
<stop stop-color="#CDDC39"/>
<stop offset="1" stop-color="#8BC34A"/>
</linearGradient>
<linearGradient id="paint29_linear_36_33246" x1="241.802" y1="771.372" x2="218.079" y2="772.82" gradientUnits="userSpaceOnUse">
<stop stop-color="#8BC34A"/>
<stop offset="1" stop-color="#7CB342"/>
</linearGradient>
<linearGradient id="paint30_linear_36_33246" x1="20.1442" y1="352.391" x2="41.8667" y2="382.631" gradientUnits="userSpaceOnUse">
<stop stop-color="#CDDC39"/>
<stop offset="1" stop-color="#8BC34A"/>
</linearGradient>
<linearGradient id="paint31_linear_36_33246" x1="75.0541" y1="381.744" x2="45.0754" y2="383.536" gradientUnits="userSpaceOnUse">
<stop stop-color="#8BC34A"/>
<stop offset="1" stop-color="#7CB342"/>
</linearGradient>
<linearGradient id="paint32_linear_36_33246" x1="26.4885" y1="478.316" x2="39.5246" y2="496.522" gradientUnits="userSpaceOnUse">
<stop stop-color="#CDDC39"/>
<stop offset="1" stop-color="#8BC34A"/>
</linearGradient>
<linearGradient id="paint33_linear_36_33246" x1="61.4977" y1="496.142" x2="41.9232" y2="497.319" gradientUnits="userSpaceOnUse">
<stop stop-color="#8BC34A"/>
<stop offset="1" stop-color="#7CB342"/>
</linearGradient>
<linearGradient id="paint34_linear_36_33246" x1="270.504" y1="369.162" x2="328.669" y2="406.53" gradientUnits="userSpaceOnUse">
<stop stop-color="#CDDC39"/>
<stop offset="1" stop-color="#8BC34A"/>
</linearGradient>
<linearGradient id="paint35_linear_36_33246" x1="385.356" y1="382.26" x2="334.825" y2="405.899" gradientUnits="userSpaceOnUse">
<stop stop-color="#8BC34A"/>
<stop offset="1" stop-color="#7CB342"/>
</linearGradient>
<linearGradient id="paint36_linear_36_33246" x1="113.204" y1="201.761" x2="181.566" y2="194.882" gradientUnits="userSpaceOnUse">
<stop stop-color="#8BC34A"/>
<stop offset="1" stop-color="#7CB342"/>
</linearGradient>
<linearGradient id="paint37_linear_36_33246" x1="205.989" y1="214.91" x2="264.193" y2="252.283" gradientUnits="userSpaceOnUse">
<stop stop-color="#8BC34A"/>
<stop offset="1" stop-color="#7CB342"/>
</linearGradient>
<linearGradient id="paint38_linear_36_33246" x1="227.113" y1="276.552" x2="285.278" y2="313.92" gradientUnits="userSpaceOnUse">
<stop stop-color="#8BC34A"/>
<stop offset="1" stop-color="#7CB342"/>
</linearGradient>
<linearGradient id="paint39_linear_36_33246" x1="257.585" y1="268.401" x2="227.095" y2="313.37" gradientUnits="userSpaceOnUse">
<stop stop-color="#CDDC39"/>
<stop offset="1" stop-color="#8BC34A"/>
</linearGradient>
<linearGradient id="paint40_linear_36_33246" x1="165.441" y1="347.878" x2="220.823" y2="344.03" gradientUnits="userSpaceOnUse">
<stop stop-color="#8BC34A"/>
<stop offset="1" stop-color="#7CB342"/>
</linearGradient>
<linearGradient id="paint41_linear_36_33246" x1="86.8332" y1="317.61" x2="32.6243" y2="319.203" gradientUnits="userSpaceOnUse">
<stop stop-color="#CDDC39"/>
<stop offset="1" stop-color="#8BC34A"/>
</linearGradient>
<linearGradient id="paint42_linear_36_33246" x1="29.8484" y1="216.007" x2="65.6948" y2="258.373" gradientUnits="userSpaceOnUse">
<stop stop-color="#8BC34A"/>
<stop offset="1" stop-color="#7CB342"/>
</linearGradient>
<linearGradient id="paint43_linear_36_33246" x1="360.179" y1="315.979" x2="391.188" y2="309.284" gradientUnits="userSpaceOnUse">
<stop stop-color="#CDDC39"/>
<stop offset="1" stop-color="#8BC34A"/>
</linearGradient>
<linearGradient id="paint44_linear_36_33246" x1="382.063" y1="218.733" x2="362.521" y2="252.823" gradientUnits="userSpaceOnUse">
<stop stop-color="#8BC34A"/>
<stop offset="1" stop-color="#7CB342"/>
</linearGradient>
<linearGradient id="paint45_linear_36_33246" x1="313.509" y1="247.875" x2="356.459" y2="261.228" gradientUnits="userSpaceOnUse">
<stop stop-color="#CDDC39"/>
<stop offset="1" stop-color="#8BC34A"/>
</linearGradient>
<linearGradient id="paint46_linear_36_33246" x1="341.323" y1="248.449" x2="293.636" y2="276.857" gradientUnits="userSpaceOnUse">
<stop stop-color="#8BC34A"/>
<stop offset="1" stop-color="#7CB342"/>
</linearGradient>
<linearGradient id="paint47_linear_36_33246" x1="215.965" y1="218.49" x2="245.456" y2="185.025" gradientUnits="userSpaceOnUse">
<stop stop-color="#CDDC39"/>
<stop offset="1" stop-color="#8BC34A"/>
</linearGradient>
<linearGradient id="paint48_linear_36_33246" x1="247.299" y1="132.14" x2="253.577" y2="187.16" gradientUnits="userSpaceOnUse">
<stop stop-color="#8BC34A"/>
<stop offset="1" stop-color="#7CB342"/>
</linearGradient>
<linearGradient id="paint49_linear_36_33246" x1="42.8337" y1="72.2646" x2="37.6247" y2="126.618" gradientUnits="userSpaceOnUse">
<stop stop-color="#CDDC39"/>
<stop offset="1" stop-color="#8BC34A"/>
</linearGradient>
<linearGradient id="paint50_linear_36_33246" x1="66.5428" y1="168.119" x2="26.423" y2="129.992" gradientUnits="userSpaceOnUse">
<stop stop-color="#8BC34A"/>
<stop offset="1" stop-color="#7CB342"/>
</linearGradient>
</defs>
</svg>
