<svg width="90" height="62" viewBox="0 0 90 62" fill="none" xmlns="http://www.w3.org/2000/svg">
<path d="M49.6887 13.6508L51.4745 33.3951L40.8885 22.5904C39.803 21.4911 39.1496 20.0382 39.0477 18.4972C38.9458 16.9561 39.4021 15.4299 40.3334 14.1974C41.2583 12.965 42.6229 12.1361 44.1434 11.8831C45.664 11.6301 47.2236 11.9724 48.4982 12.8388L49.6887 13.6508Z" fill="#558B2F"/>
<path d="M49.6807 13.6504L51.4664 33.3947L59.945 20.8696C60.8139 19.5933 61.1946 18.0473 61.0174 16.5138C60.8401 14.9802 60.1169 13.5616 58.9797 12.5169C57.8507 11.4695 56.361 10.8976 54.8208 10.9201C53.2805 10.9425 51.8083 11.5577 50.7103 12.6375L49.6807 13.6504Z" fill="#33691E"/>
<path d="M60.2344 22.0998L71.4319 38.4596L56.9525 34.1907C55.4702 33.7596 54.1924 32.8103 53.3522 31.5161C52.5119 30.2218 52.1652 28.6688 52.3753 27.1403C52.5785 25.6177 53.3602 24.2315 54.5583 23.2692C55.7564 22.3068 57.279 21.842 58.8106 21.9711L60.2344 22.0998Z" fill="#689F38"/>
<path d="M60.2266 22.0999L71.424 38.4677L72.711 23.4022C72.8479 21.8644 72.4267 20.3287 71.5244 19.0756C70.622 17.8225 69.2987 16.9356 67.7961 16.577C66.2991 16.2155 64.7202 16.4438 63.3872 17.2147C62.0541 17.9856 61.0692 19.2398 60.6368 20.7171L60.2266 22.0999Z" fill="#558B2F"/>
<path d="M33.1661 16.2151L22.9742 33.218L20.7863 18.265C20.5576 16.7383 20.886 15.1804 21.7116 13.8756C22.5371 12.5709 23.8047 11.6064 25.2829 11.1584C26.7567 10.7103 28.3463 10.8451 29.7236 11.5348C31.1008 12.2245 32.1603 13.4164 32.6834 14.8645L33.1661 16.2151Z" fill="#558B2F"/>
<path d="M33.158 16.207L22.958 33.2179L37.1961 28.0809C38.6483 27.5613 39.8655 26.5375 40.6259 25.1962C41.3863 23.855 41.6393 22.2853 41.3388 20.7733C41.0448 19.2607 40.1781 17.9199 38.9193 17.0303C37.6605 16.1407 36.1066 15.7709 34.5817 15.998L33.158 16.207Z" fill="#33691E"/>
<path d="M37.7752 22.8073L48.9645 39.1671L34.4851 34.8983C33.0028 34.4671 31.7251 33.5179 30.8849 32.2236C30.0446 30.9293 29.6979 29.3763 29.908 27.8479C30.1113 26.3252 30.8929 24.939 32.091 23.9767C33.2891 23.0143 34.8117 22.5495 36.3433 22.6786L37.7752 22.8073Z" fill="#7CB342"/>
<path d="M37.7593 22.8153L48.9566 39.1671L50.2438 24.1016C50.3806 22.5638 49.9594 21.0281 49.057 19.775C48.1546 18.5218 46.8314 17.635 45.3288 17.2763C43.8317 16.9128 42.2518 17.1402 40.9183 17.9114C39.5848 18.6826 38.6002 19.9381 38.1695 21.4165L37.7593 22.8153Z" fill="#689F38"/>
<path d="M52.2066 23.8926L65.3347 11.4961L51.7643 12.6376C50.3731 12.765 49.0697 13.3721 48.0775 14.3549C47.0854 15.3377 46.4663 16.6349 46.3264 18.0239C46.1866 19.3875 46.5918 20.751 47.4537 21.8172C48.3156 22.8834 49.5643 23.5658 50.9276 23.7157L52.2066 23.8926Z" fill="#689F38"/>
<path d="M50.9115 25.1065L65.3266 11.488L51.9894 14.4384C50.555 14.7947 49.2419 15.5272 48.1855 16.5603C47.1292 17.5934 46.3679 18.8896 45.9805 20.3151C45.3289 23.0886 46.9618 25.211 49.6807 25.1386L50.9115 25.1065Z" fill="url(#paint0_linear_31_33184)"/>
<path d="M35.0001 15.8532L27.0928 4.4375L37.1157 7.48439C38.1406 7.80289 39.0225 8.46828 39.6098 9.36618C40.197 10.2641 40.4528 11.3384 40.3334 12.4044C40.2137 13.4488 39.6895 14.4048 38.873 15.0675C38.0565 15.7302 37.0128 16.0469 35.9655 15.9497L35.0001 15.8532Z" fill="#689F38"/>
<path d="M35.7724 17.0031L27.0847 4.46191L36.6572 8.80306C37.677 9.30329 38.5461 10.0644 39.1762 11.009C39.8064 11.9537 40.1751 13.0481 40.2449 14.1813C40.2449 16.376 38.7245 17.7105 36.6893 17.2201L35.7724 17.0031Z" fill="url(#paint1_linear_31_33184)"/>
<path d="M13.7233 21.6014L0 23.764L7.09497 16.0624C7.82287 15.2704 8.8043 14.7569 9.87025 14.6101C10.9362 14.4634 12.02 14.6927 12.935 15.2585C13.826 15.819 14.4614 16.7063 14.7051 17.7299C14.9487 18.7535 14.7811 19.8317 14.2381 20.7332L13.7233 21.6014Z" fill="#689F38"/>
<path d="M15.0747 21.4006L0 23.8123L8.04412 17.0835C8.94114 16.3776 10.01 15.9229 11.1409 15.7661C12.2718 15.6093 13.424 15.756 14.4794 16.1911C16.4744 17.0996 16.9972 19.0933 15.678 20.7092L15.0747 21.4006Z" fill="url(#paint2_linear_31_33184)"/>
<path d="M77.7868 27.1081L89.1773 25.0741L81.4951 20.934C80.7022 20.5103 79.7861 20.3764 78.905 20.5554C78.0239 20.7345 77.233 21.2152 76.6686 21.9147C76.1126 22.5946 75.8487 23.4669 75.9346 24.3407C76.0206 25.2146 76.4493 26.0189 77.1271 26.5775L77.7868 27.1081Z" fill="#689F38"/>
<path d="M76.6527 27.2931L89.1694 25.0502L80.9885 21.9551C80.0939 21.6405 79.1313 21.5707 78.2006 21.7531C77.27 21.9354 76.405 22.3632 75.6955 22.9921C74.3763 24.2543 74.5049 25.9667 75.9851 26.8751L76.6527 27.2931Z" fill="url(#paint3_linear_31_33184)"/>
<path d="M73.2984 26.1836L87.9871 36.6828L72.7031 39.6493C71.9898 39.8252 71.246 39.8388 70.5267 39.6891C69.8073 39.5393 69.1308 39.23 68.5471 38.784C67.9633 38.338 67.4873 37.7666 67.1541 37.1121C66.8208 36.4577 66.639 35.7368 66.6218 35.0026C66.5537 33.2663 67.0138 31.5501 67.9415 30.0804C68.8692 28.6108 70.2209 27.4567 71.8183 26.7705L73.2984 26.1836Z" fill="#689F38"/>
<path d="M71.8662 25.1387L87.9545 36.675L74.3438 35.5575C72.874 35.3975 71.4733 34.8492 70.2857 33.969C69.0981 33.0887 68.1666 31.9083 67.5867 30.5491C66.5732 27.8881 67.8924 25.5647 70.6033 25.2753L71.8662 25.1387Z" fill="url(#paint4_linear_31_33184)"/>
<path d="M48.7075 7.30762L41.4194 0L42.2238 7.83019C42.3035 8.62942 42.667 9.37371 43.2484 9.92822C43.8298 10.4827 44.5907 10.8108 45.3933 10.8529C46.1928 10.8942 46.9776 10.6268 47.5855 10.1061C48.1933 9.58544 48.5777 8.85121 48.6591 8.05526L48.7075 7.30762Z" fill="url(#paint5_linear_31_33184)"/>
<path d="M48.7075 7.30768L41.4194 0.00805664L48.0558 1.99377C48.78 2.23389 49.4351 2.64612 49.9647 3.19504C50.4944 3.74395 50.8827 4.41312 51.0965 5.14513C51.4505 6.53591 50.6622 7.55692 49.3188 7.38005L48.7075 7.30768Z" fill="url(#paint6_linear_31_33184)"/>
<path d="M31.7264 30.509L18.4214 45.2047L19.2258 30.107C19.2974 28.5645 19.922 27.0992 20.9854 25.9789C22.0487 24.8586 23.4801 24.158 25.0176 24.0053C26.551 23.8497 28.0854 24.2898 29.3029 25.2342C30.5205 26.1786 31.3277 27.5549 31.5574 29.078L31.7264 30.509Z" fill="#689F38"/>
<path d="M31.7181 30.501L18.4131 45.1967L33.3751 42.9296C34.9016 42.7021 36.2954 41.934 37.3024 40.7652C38.3095 39.5964 38.8627 38.1049 38.8613 36.5626C38.8651 35.0216 38.2746 33.5385 37.2124 32.4215C36.1502 31.3046 34.6981 30.6398 33.158 30.5653L31.7181 30.501Z" fill="#558B2F"/>
<path d="M30.7127 44.859L41.3309 61.5967L26.9722 56.8535C25.5001 56.3702 24.2519 55.3724 23.4569 54.0432C22.6619 52.714 22.3733 51.1429 22.6444 49.6182C22.902 48.0998 23.7357 46.7392 24.9719 45.8197C26.2081 44.9003 27.7515 44.4928 29.2808 44.6821L30.7127 44.859Z" fill="url(#paint7_linear_31_33184)"/>
<path d="M30.7046 44.8588L41.3228 61.6045L43.1327 46.5872C43.3212 45.0551 42.952 43.5063 42.0924 42.2237C41.2329 40.9411 39.9405 40.0103 38.4511 39.6011C36.9676 39.1868 35.3814 39.36 34.0225 40.0847C32.6636 40.8094 31.6364 42.0299 31.155 43.4922L30.7046 44.8588Z" fill="#689F38"/>
<path d="M50.9116 38.8135L48.973 58.5417L40.5911 45.9523C39.7311 44.6703 39.3611 43.1221 39.5486 41.5901C39.7362 40.0581 40.4687 38.6446 41.6126 37.6076C42.752 36.5701 44.2472 36.0105 45.7883 36.045C47.3294 36.0794 48.7981 36.7051 49.89 37.7925L50.9116 38.8135Z" fill="url(#paint8_linear_31_33184)"/>
<path d="M50.9116 38.8132L48.981 58.5415L59.6475 47.8172C60.7404 46.7264 61.4043 45.2793 61.518 43.7399C61.6317 42.2005 61.1877 40.6716 60.2669 39.4323C59.3519 38.194 57.9948 37.3553 56.4775 37.0904C54.9602 36.8254 53.3992 37.1545 52.1182 38.0093L50.9116 38.8132Z" fill="#689F38"/>
<path d="M50.1553 33.4111L68.2546 41.5227L55.1909 42.0131C53.7368 42.021 52.2989 41.7073 50.9805 41.0944C49.662 40.4814 48.4957 39.5844 47.5651 38.4678C45.9562 36.3133 46.5757 34.1909 49.0372 33.6443L50.1553 33.4111Z" fill="url(#paint9_linear_31_33184)"/>
<path d="M50.1474 33.4271L68.2467 41.5307L61.4655 28.0167C60.7721 26.6418 59.6081 25.5611 58.1852 24.9711C56.7622 24.381 55.1746 24.3207 53.7109 24.801C52.2536 25.2758 51.0333 26.2899 50.3003 27.6353C49.5674 28.9807 49.3774 30.5554 49.7693 32.0363L50.1474 33.4271Z" fill="url(#paint10_linear_31_33184)"/>
<path d="M21.4138 31.1278L2.29297 36.4015L11.6723 26.3364C12.7102 25.2778 14.0188 24.524 15.4555 24.1568C16.8922 23.7897 18.4021 23.8234 19.821 24.2542C22.5399 25.1788 23.5294 27.7433 22.0734 30.0746L21.4138 31.1278Z" fill="url(#paint11_linear_31_33184)"/>
<path d="M21.4055 31.1279L2.28467 36.3936L16.1286 42.5034C17.5362 43.1307 19.1223 43.2323 20.5985 42.7897C22.0747 42.3471 23.343 41.3897 24.1727 40.0917C24.9998 38.7909 25.2941 37.2218 24.9946 35.71C24.695 34.1982 23.8246 32.8596 22.5639 31.972L21.4055 31.1279Z" fill="url(#paint12_linear_31_33184)"/>
<defs>
<linearGradient id="paint0_linear_31_33184" x1="47.2084" y1="6.85046" x2="57.1562" y2="11.7791" gradientUnits="userSpaceOnUse">
<stop stop-color="#CDDC39"/>
<stop offset="1" stop-color="#8BC34A"/>
</linearGradient>
<linearGradient id="paint1_linear_31_33184" x1="33.9862" y1="0.849092" x2="25.6885" y2="2.97469" gradientUnits="userSpaceOnUse">
<stop stop-color="#CDDC39"/>
<stop offset="1" stop-color="#8BC34A"/>
</linearGradient>
<linearGradient id="paint2_linear_31_33184" x1="15.2115" y1="6.71317" x2="13.5507" y2="15.1112" gradientUnits="userSpaceOnUse">
<stop stop-color="#CDDC39"/>
<stop offset="1" stop-color="#8BC34A"/>
</linearGradient>
<linearGradient id="paint3_linear_31_33184" x1="67.0696" y1="11.1924" x2="70.7293" y2="17.3094" gradientUnits="userSpaceOnUse">
<stop stop-color="#CDDC39"/>
<stop offset="1" stop-color="#8BC34A"/>
</linearGradient>
<linearGradient id="paint4_linear_31_33184" x1="65.262" y1="26.7928" x2="74.5978" y2="20.5563" gradientUnits="userSpaceOnUse">
<stop stop-color="#CDDC39"/>
<stop offset="1" stop-color="#8BC34A"/>
</linearGradient>
<linearGradient id="paint5_linear_31_33184" x1="47.4648" y1="9.16535" x2="49.8038" y2="1.97262" gradientUnits="userSpaceOnUse">
<stop stop-color="#CDDC39"/>
<stop offset="1" stop-color="#8BC34A"/>
</linearGradient>
<linearGradient id="paint6_linear_31_33184" x1="55.0937" y1="0.865202" x2="51.0807" y2="2.60774" gradientUnits="userSpaceOnUse">
<stop stop-color="#8BC34A"/>
<stop offset="1" stop-color="#7CB342"/>
</linearGradient>
<linearGradient id="paint7_linear_31_33184" x1="23.6728" y1="42.4615" x2="38.0598" y2="41.0137" gradientUnits="userSpaceOnUse">
<stop stop-color="#8BC34A"/>
<stop offset="1" stop-color="#7CB342"/>
</linearGradient>
<linearGradient id="paint8_linear_31_33184" x1="43.1997" y1="45.2288" x2="55.449" y2="53.094" gradientUnits="userSpaceOnUse">
<stop stop-color="#8BC34A"/>
<stop offset="1" stop-color="#7CB342"/>
</linearGradient>
<linearGradient id="paint9_linear_31_33184" x1="45.2992" y1="45.9822" x2="51.5057" y2="38.9393" gradientUnits="userSpaceOnUse">
<stop stop-color="#CDDC39"/>
<stop offset="1" stop-color="#8BC34A"/>
</linearGradient>
<linearGradient id="paint10_linear_31_33184" x1="51.8936" y1="27.8095" x2="53.2148" y2="39.3886" gradientUnits="userSpaceOnUse">
<stop stop-color="#8BC34A"/>
<stop offset="1" stop-color="#7CB342"/>
</linearGradient>
<linearGradient id="paint11_linear_31_33184" x1="8.86307" y1="15.2084" x2="7.76682" y2="26.6473" gradientUnits="userSpaceOnUse">
<stop stop-color="#CDDC39"/>
<stop offset="1" stop-color="#8BC34A"/>
</linearGradient>
<linearGradient id="paint12_linear_31_33184" x1="13.8527" y1="35.3814" x2="5.40935" y2="27.3574" gradientUnits="userSpaceOnUse">
<stop stop-color="#8BC34A"/>
<stop offset="1" stop-color="#7CB342"/>
</linearGradient>
</defs>
</svg>
